#!OML:ASF G:\JayActor3\Patient Classification 1\Patient 1\Session 6\male.ASF
:FULLY-SPECIFIED
:DEGREES
1003
root 5.74853 16.3099 -2.75367 366.495 -36.445 -364.75
lowerback 13.3854 1.76821 4.47819
upperback 11.0735 2.47166 -0.289095
thorax 4.46059 1.42402 -3.0438
lowerneck -2.79558 -1.18343 -2.37482
upperneck 31.2619 -1.52706 -0.921861
head 10.4504 -1.19286 -0.0817141
rclavicle 1.05356e-014 1.50082e-014
rhumerus -9.66756 21.566 -87.3191
rradius 86.3467
rwrist -67.3149
rhand 22.1513 -14.2683
rfingers 7.12502
rthumb 46.5337 -37.1373
lclavicle 1.05356e-014 1.50082e-014
lhumerus -30.5897 14.7502 72.3424
lradius 30.3476
lwrist 31.2171
lhand -18.1122 10.9601
lfingers 7.12502
lthumb 8.16205 40.7825
rfemur -20.6406 -3.39023 28.3244
rtibia 40.6897
rfoot -30.0585 -17.8115
rtoes 12.7814
lfemur -28.3142 8.09599 -12.7964
ltibia 43.3058
lfoot -8.38735 -7.35127
ltoes -4.04245
1004
root 5.71988 16.3042 -2.7378 366.053 -36.6956 -365.029
lowerback 13.0064 1.7283 4.53904
upperback 11.0115 2.41374 -0.290818
thorax 4.59423 1.40211 -3.06236
lowerneck -2.59273 -1.3065 -2.4908
upperneck 31.4762 -1.63905 -1.15782
head 10.4946 -1.28939 -0.157637
rclavicle 2.03754e-014 6.55989e-015
rhumerus -10.568 21.6453 -87.144
rradius 87.1638
rwrist -68.2852
rhand 21.8711 -14.3269
rfingers 7.12502
rthumb 46.274 -37.3065
lclavicle 2.03754e-014 6.55989e-015
lhumerus -30.0372 14.8848 72.5939
lradius 31.3716
lwrist 31.873
lhand -18.0974 10.8711
lfingers 7.12502
lthumb 8.17629 40.6929
rfemur -19.631 -3.53463 28.5367
rtibia 40.2978
rfoot -29.9575 -17.5488
rtoes 12.7782
lfemur -27.9526 8.12051 -12.2994
ltibia 44.1252
lfoot -8.39759 -7.38257
ltoes -5.13278
1005
root 5.69271 16.2989 -2.72048 365.645 -36.9749 -365.333
lowerback 12.6457 1.68435 4.64659
upperback 10.9438 2.35473 -0.302794
thorax 4.71576 1.38266 -3.11909
lowerneck -2.38786 -1.42601 -2.56107
upperneck 31.6903 -1.74791 -1.41268
head 10.5376 -1.38187 -0.248331
rclavicle -4.8901e-014 3.24019e-014
rhumerus -11.4461 21.7435 -86.9723
rradius 87.9128
rwrist -69.209
rhand 21.5188 -14.3854
rfingers 7.12502
rthumb 45.9473 -37.5019
lclavicle -4.8901e-014 3.24019e-014
lhumerus -29.5038 14.9251 72.8753
lradius 32.3947
lwrist 32.5523
lhand -18.0878 10.7957
lfingers 7.12502
lthumb 8.1856 40.6171
rfemur -18.6373 -3.68956 28.7549
rtibia 39.8967
rfoot -29.8181 -17.2594
rtoes 12.7651
lfemur -27.5862 8.09342 -11.7808
ltibia 44.9231
lfoot -8.4771 -7.40641
ltoes -6.17757
1006
root 5.66726 16.2941 -2.70163 365.272 -37.2913 -365.668
lowerback 12.3092 1.63617 4.80508
upperback 10.8707 2.29447 -0.325391
thorax 4.82238 1.36582 -3.2169
lowerneck -2.1973 -1.53467 -2.60699
upperneck 31.9172 -1.84456 -1.66978
head 10.5878 -1.467 -0.343644
rclavicle 7.65321e-015 -6.55989e-015
rhumerus -12.3095 21.8727 -86.8094
rradius 88.6108
rwrist -70.0695
rhand 21.088 -14.4343
rfingers 7.12502
rthumb 45.5472 -37.715
lclavicle 7.65321e-015 -6.55989e-015
lhumerus -28.9923 14.884 73.1768
lradius 33.4025
lwrist 33.2358
lhand -18.0955 10.7253
lfingers 7.12502
lthumb 8.17812 40.547
rfemur -17.6524 -3.84388 28.9799
rtibia 39.4834
rfoot -29.651 -16.949
rtoes 12.7146
lfemur -27.1996 8.04057 -11.2441
ltibia 45.6839
lfoot -8.65146 -7.43639
ltoes -7.19776
1007
root 5.64241 16.2904 -2.68177 364.922 -37.6715 -366.007
lowerback 11.9774 1.60184 4.95051
upperback 10.803 2.24974 -0.345147
thorax 4.93329 1.35584 -3.30601
lowerneck -2.04013 -1.63084 -2.65592
upperneck 32.1573 -1.92429 -1.92075
head 10.6497 -1.54478 -0.435687
rclavicle -2.72335e-014 2.14687e-014
rhumerus -13.145 22.0417 -86.6283
rradius 89.2734
rwrist -70.8596
rhand 20.5795 -14.466
rfingers 7.12502
rthumb 45.0745 -37.9362
lclavicle -2.72335e-014 2.14687e-014
lhumerus -28.4876 14.7919 73.524
lradius 34.3749
lwrist 33.8803
lhand -18.1674 10.664
lfingers 7.12502
lthumb 8.10878 40.4885
rfemur -16.6763 -3.96021 29.193
rtibia 39.0583
rfoot -29.4616 -16.6349
rtoes 12.6277
lfemur -26.7766 7.98933 -10.7113
ltibia 46.389
lfoot -8.94065 -7.47321
ltoes -8.12744
1008
root 5.61873 16.2878 -2.66059 364.602 -38.113 -366.34
lowerback 11.6401 1.57952 5.08298
upperback 10.7369 2.21817 -0.364611
thorax 5.04988 1.35173 -3.38856
lowerneck -1.92245 -1.71079 -2.71401
upperneck 32.4157 -1.98533 -2.14943
head 10.727 -1.6136 -0.517696
rclavicle 3.12092e-014 -2.54444e-014
rhumerus -13.961 22.2541 -86.4346
rradius 89.9216
rwrist -71.5645
rhand 19.9877 -14.4858
rfingers 7.12502
rthumb 44.5236 -38.1706
lclavicle 3.12092e-014 -2.54444e-014
lhumerus -28.0001 14.6519 73.9038
lradius 35.3075
lwrist 34.4476
lhand -18.224 10.5806
lfingers 7.12502
lthumb 8.05415 40.4071
rfemur -15.7243 -4.03966 29.3854
rtibia 38.6242
rfoot -29.247 -16.3217
rtoes 12.4924
lfemur -26.3269 7.93048 -10.1986
ltibia 47.029
lfoot -9.35554 -7.49158
ltoes -9.01968
